<?xml version="1.0" encoding="utf-8"?>
<!-- Generator: Adobe Illustrator 16.0.0, SVG Export Plug-In . SVG Version: 6.00 Build 0)  -->
<!DOCTYPE svg PUBLIC "-//W3C//DTD SVG 1.1//EN" "http://www.w3.org/Graphics/SVG/1.1/DTD/svg11.dtd">
<svg version="1.1" id="圖層_1" xmlns="http://www.w3.org/2000/svg" xmlns:xlink="http://www.w3.org/1999/xlink" x="0px" y="0px"
	 width="249.053px" height="104.486px" viewBox="0 0 249.053 104.486" enable-background="new 0 0 249.053 104.486"
	 xml:space="preserve">
<g>
	<g>
		<g>
			<g>
				<path fill="#FFFFFF" d="M47.667,6.117c-0.093-0.38-0.745-0.66-1.732-0.333c-0.589,0.179-1.206,0.62-1.729,1.21
					c0.063-0.446,0.104-0.923,0.102-1.427C44.292,2.493,43.623,0.001,42.795,0c-0.828,0-1.501,2.498-1.487,5.581
					c0.001,0.461,0.05,0.897,0.12,1.309c-0.503-0.54-1.083-0.937-1.636-1.106c-0.992-0.327-1.643-0.049-1.735,0.333
					c-0.111,0.408,0.224,0.872,0.542,1.419c0.331,0.542,0.687,1.22,1.113,2.128c0.62,1.355,1.567,2.501,1.987,3.954
					c0.313,1.079,0.616,2.162,0.941,3.24c0.02,0.059,0.222,0.881,0.291,0.881c0.167,0,0.552-1.91,0.593-2.076
					c0.273-1.098,0.419-2.25,0.915-3.281c0.457-0.944,1.127-1.768,1.575-2.718c0.424-0.909,0.78-1.586,1.114-2.128
					C47.444,6.988,47.78,6.525,47.667,6.117z"/>
				<g>
					<g>
						<g>
							<path fill="#FFFFFF" d="M36.646,3.797c-0.044-0.848-0.298-0.31-0.511,0.517c-0.23,0.827-0.188,1.892-0.34,2.038
								c-0.977,0.905-0.583,1.79-0.186,2.212c0.398,0.456,0.778,0.603,0.106,1.175c-0.285,0.216-0.009,0.937,0.682,1.534
								c0.446,0.405,1.045,0.819,1.628,0.958c1.1,0.242,2.679,1.31,3.698,2.659c1.088,1.298,1.309,3.019,1.274,3.022
								c-0.004,0.017,0.167-1.262-0.399-2.836c-0.537-1.576-1.646-3.401-3.16-4.982c-0.385-0.399-0.775-0.765-1.256-1.145
								c-0.289-0.225-0.534-0.489-0.737-0.769c-0.414-0.56-0.647-1.2-0.756-1.813C36.465,5.136,36.685,4.089,36.646,3.797z"/>
						</g>
					</g>
				</g>
				<g>
					<g>
						<path fill="#FFFFFF" d="M34.622,7.318c0.008,0.01-1.042,0.181-2.179,0.949c-0.549,0.406-1.182,0.933-1.439,1.969
							c-0.227,1.006,0.031,2.254,0.885,3.142c0.832,0.894,2.212,1.37,3.483,1.521c1.299,0.183,2.596,0.11,3.827,0.415
							c0.613,0.156,1.232,0.443,1.717,0.917c0.489,0.47,0.792,1.073,0.975,1.576c0.355,1.028,0.375,1.692,0.395,1.693
							c0.206-1.056,0.286-2.416-0.385-3.717c-0.684-1.291-1.816-1.992-2.725-2.448c-1.054-0.508-2.025-0.818-2.874-1.169
							c-0.84-0.34-1.554-0.724-1.934-1.135c-0.369-0.375-0.55-0.908-0.483-1.38C33.939,9.023,34.269,8.142,34.622,7.318
							L34.622,7.318z"/>
					</g>
				</g>
				<g>
					<g>
						<path fill="#FFFFFF" d="M31.482,13.835c0.021-0.019-0.123,0.572,0.441,1.285c0.549,0.709,1.857,1.221,3.069,1.079
							c0.615-0.05,1.385-0.279,2.176-0.446c0.849-0.15,1.742-0.359,2.622-0.216c0.904,0.116,1.636,0.866,1.97,1.441
							c0.348,0.58,0.482,0.975,0.492,0.975c-0.097-0.7-0.296-1.466-0.804-2.162c-0.507-0.707-1.351-1.132-2.076-1.285
							c-0.833-0.187-1.584-0.192-2.333-0.191c-0.804,0.015-1.515,0.125-2.205,0.188C33.466,14.648,32.199,14.573,31.482,13.835
							L31.482,13.835z"/>
					</g>
				</g>
				<g>
					<g>
						<g>
							<path fill="#FFFFFF" d="M49.375,3.797c0.042-0.848,0.298-0.31,0.511,0.517c0.231,0.827,0.187,1.892,0.34,2.038
								c0.975,0.905,0.583,1.79,0.186,2.212c-0.399,0.456-0.778,0.603-0.109,1.175c0.286,0.216,0.014,0.937-0.681,1.534
								c-0.444,0.405-1.043,0.819-1.627,0.958c-1.098,0.242-2.678,1.31-3.696,2.659c-1.089,1.298-1.31,3.019-1.272,3.022
								c0.003,0.017-0.167-1.262,0.397-2.836c0.536-1.576,1.643-3.401,3.157-4.982c0.388-0.399,0.778-0.765,1.259-1.145
								c0.29-0.225,0.534-0.489,0.737-0.769c0.415-0.56,0.647-1.2,0.757-1.813C49.554,5.136,49.337,4.089,49.375,3.797z"/>
						</g>
					</g>
				</g>
				<g>
					<g>
						<path fill="#FFFFFF" d="M51.398,7.318c-0.007,0.01,1.042,0.181,2.181,0.949c0.546,0.406,1.179,0.933,1.439,1.969
							c0.225,1.006-0.034,2.254-0.888,3.142c-0.83,0.894-2.21,1.37-3.485,1.521c-1.295,0.183-2.591,0.11-3.828,0.415
							c-0.61,0.156-1.228,0.443-1.714,0.917c-0.491,0.47-0.791,1.073-0.975,1.576c-0.354,1.028-0.375,1.692-0.394,1.693
							c-0.208-1.056-0.285-2.416,0.384-3.717c0.686-1.291,1.816-1.992,2.726-2.448c1.053-0.508,2.023-0.818,2.873-1.169
							c0.844-0.34,1.555-0.724,1.935-1.135c0.368-0.375,0.55-0.908,0.482-1.38C52.079,9.023,51.753,8.142,51.398,7.318L51.398,7.318
							z"/>
					</g>
				</g>
				<g>
					<g>
						<path fill="#FFFFFF" d="M54.537,13.835c-0.022-0.019,0.123,0.572-0.442,1.285c-0.549,0.709-1.857,1.221-3.071,1.079
							c-0.613-0.05-1.382-0.279-2.17-0.446c-0.852-0.15-1.748-0.359-2.625-0.216c-0.905,0.116-1.636,0.866-1.972,1.441
							c-0.346,0.58-0.478,0.975-0.49,0.975c0.097-0.7,0.297-1.466,0.806-2.162c0.503-0.707,1.349-1.132,2.07-1.285
							c0.838-0.187,1.588-0.192,2.34-0.191c0.799,0.015,1.512,0.125,2.2,0.188C52.553,14.648,53.822,14.573,54.537,13.835
							L54.537,13.835z"/>
					</g>
				</g>
				<path fill="#FFFFFF" d="M42.942,30.604c0-2.707,2.035-5.417,4.403-8.124c-3.385-3.385-4.403-7.789-4.403-7.789
					s-1.011,4.403-4.398,7.789C40.91,25.188,42.942,27.897,42.942,30.604z"/>
			</g>
		</g>
		<path fill="#FFFFFF" d="M43.044,104.486c0-2.438,1.829-4.878,3.961-7.317c-3.05-3.048-3.961-7.013-3.961-7.013
			s-0.915,3.965-3.962,7.013C41.213,99.608,43.044,102.048,43.044,104.486z"/>
		<path fill="#FFFFFF" d="M57.083,33.417H28.725c1.744,0.924,2.848,2.437,3.308,4.539c0.204,0.923,0.306,2.873,0.306,5.847v32.691
			c0,2.973-0.103,4.924-0.306,5.845c-0.46,2.104-1.564,3.615-3.308,4.539h16.744c-1.741-0.924-2.847-2.435-3.308-4.539
			c-0.204-0.921-0.307-2.872-0.307-5.845V60.725h7.23c3.178,0,5.307,0.743,6.384,2.231V54.34c-0.769,0.36-1.693,0.539-2.767,0.539
			H41.854V39.725c2.309-0.357,5.128-0.537,8.462-0.537c2.357,0,4.152,0.152,5.383,0.46c1.537,0.461,3.026,1.358,4.462,2.694v-9.386
			C59.289,33.264,58.263,33.417,57.083,33.417z M37.179,83.431h-2.054V36.229l2.054,2.208V83.431z"/>
		<g>
			<path fill="#FFFFFF" d="M14.411,68.249c0,0-3.805,3.298-4.618,9.298c-1.572,11.593,7.919,15.499,7.919,15.499
				S6.252,91.184,6.118,80.564C5.997,70.696,14.411,68.249,14.411,68.249z"/>
			<path fill="#FFFFFF" d="M18.129,55.113c0,0,7.505,2.502,3.258,14.055c-4.248,11.554-1.233,16.185,7.134,20.727
				c11.893,6.455,11.949,14.038,11.949,14.038s-3.454-7.072-14.498-9.451C16.587,92.46,8.422,84.176,13.912,72.906
				C17.139,66.281,22.237,60.845,18.129,55.113z"/>
			<path fill="#FFFFFF" d="M25.889,24.83l-8.707,14.567l2.506-15.758c0.13-0.761-1.19-0.51-1.53,1.273
				c-0.129,0.679-2.5,12.614-3.864,19.75l-0.838,1.374l-0.967,1.42L6.903,53.13c0,0-1.03-0.404-4.657,2.327
				c-3.625,2.73-2.193,6.848-0.36,8.506c1.835,1.656,3.672,1.075,3.976,0.174c0.307-0.9,0.66-3.427,0.66-3.427l0.961-0.105
				l0.224-1.117l-0.926-0.37c0,0,0.616-3.436,0.988-4.313c0.307-0.722,4.61-4.208,6.133-5.428c-0.011,0.056-0.018,0.091-0.018,0.091
				l0.351-0.174c-0.14,0.156-0.755,0.84-1.466,1.553c-0.807,0.807-2.553,3.805-3.001,4.494c-0.448,0.687-2.417,6.294-3.402,9.248
				c-0.986,2.955-0.271,3.582,1.028,3.985c1.299,0.402,4.789,0.939,6.94-2.999c2.148-3.94,2.148-7.52,1.88-9.579
				c-0.27-2.061-1.565-4.043-1.565-4.043l1.672-1.316l0.371-2.556l0.459-4.144c3.126-6.554,9.056-16.615,9.391-17.225
				C27.042,25.803,26.231,24.134,25.889,24.83z M5.401,58.853c0,0-0.305,1.488-0.506,2.252c-0.203,0.765-1.079,1.106-1.856,0.466
				c-0.775-0.637-1.282-1.955-0.876-3.653c0.406-1.701,1.387-2.818,2.834-2.209C5.807,56.047,5.808,57.576,5.401,58.853z
				 M14.686,56.547c0.289,2.214-0.256,5.3-1.99,8.122c-1.734,2.821-4.557,2.875-4.514,1.047c0,0,2.385-8.565,3.096-10.179
				c0.714-1.612,1.354-1.835,1.907-1.745C13.74,53.885,14.393,54.335,14.686,56.547z"/>
			<path fill="#FFFFFF" d="M14.594,32.89l1.706-8.856C5.933,27.455,1.8,36.684,6.289,44.255c1.931,3.254,4.125,4.862,5.949,5.659
				l0.142-0.734c0.011-0.064,0.024-0.133,0.037-0.193c-1.413-0.97-2.778-2.427-3.13-4.545C8.479,39.598,10.899,35.792,14.594,32.89z
				"/>
			<path fill="#FFFFFF" d="M21.812,22.828c-0.258,0.027-0.5,0.075-0.749,0.115l2.977,4.983c1.965-0.712,3.906-1.293,5.661-1.71
				c7.871-1.866,8.898-9.326,8.898-9.326S37.336,21.167,21.812,22.828z"/>
		</g>
		<g>
			<path fill="#FFFFFF" d="M71.589,68.249c0,0,3.805,3.298,4.618,9.298c1.572,11.593-7.919,15.499-7.919,15.499
				s11.46-1.862,11.595-12.482C80.003,70.696,71.589,68.249,71.589,68.249z"/>
			<path fill="#FFFFFF" d="M67.87,55.113c0,0-7.503,2.502-3.256,14.055c4.246,11.554,1.231,16.185-7.135,20.727
				C45.586,96.35,45.53,103.932,45.53,103.932s3.455-7.072,14.498-9.451c9.385-2.021,17.551-10.305,12.061-21.575
				C68.86,66.281,63.763,60.845,67.87,55.113z"/>
			<path fill="#FFFFFF" d="M59.458,26.712c0.335,0.61,6.265,10.67,9.391,17.225l0.459,4.144l0.372,2.556l1.671,1.316
				c0,0-1.295,1.983-1.565,4.043c-0.268,2.059-0.268,5.639,1.88,9.579c2.151,3.938,5.64,3.401,6.941,2.999
				c1.298-0.403,2.013-1.031,1.027-3.985c-0.985-2.954-2.955-8.562-3.401-9.248c-0.448-0.689-2.195-3.688-3.002-4.494
				c-0.711-0.712-1.326-1.396-1.466-1.553l0.35,0.174c0,0-0.007-0.035-0.017-0.091c1.524,1.22,5.827,4.706,6.132,5.428
				c0.375,0.877,0.989,4.313,0.989,4.313l-0.925,0.37l0.224,1.117l0.962,0.105c0,0,0.352,2.527,0.659,3.427
				c0.304,0.901,2.14,1.482,3.976-0.174c1.833-1.658,3.265-5.776-0.361-8.506c-3.625-2.731-4.656-2.327-4.656-2.327l-5.585-5.674
				l-0.968-1.42l-0.837-1.374c-1.366-7.135-3.736-19.07-3.865-19.75c-0.34-1.784-1.661-2.034-1.528-1.273l2.506,15.758L60.111,24.83
				C59.769,24.134,58.958,25.803,59.458,26.712z M81.003,55.708c1.448-0.609,2.428,0.508,2.835,2.209
				c0.406,1.698-0.102,3.017-0.877,3.653c-0.777,0.64-1.653,0.298-1.856-0.466c-0.201-0.764-0.506-2.252-0.506-2.252
				C80.193,57.576,80.193,56.047,81.003,55.708z M72.814,53.792c0.555-0.09,1.194,0.133,1.908,1.745
				c0.712,1.613,3.096,10.179,3.096,10.179c0.043,1.828-2.779,1.774-4.513-1.047c-1.734-2.821-2.281-5.908-1.991-8.122
				C71.607,54.335,72.26,53.885,72.814,53.792z"/>
			<path fill="#FFFFFF" d="M69.7,24.034l1.706,8.856c3.695,2.902,6.116,6.708,5.307,11.551c-0.352,2.118-1.717,3.575-3.13,4.545
				c0.012,0.061,0.024,0.129,0.037,0.193l0.143,0.734c1.824-0.797,4.018-2.405,5.95-5.659C84.2,36.684,80.067,27.455,69.7,24.034z"
				/>
			<path fill="#FFFFFF" d="M64.189,22.828c-15.527-1.661-16.788-5.938-16.788-5.938s1.028,7.46,8.898,9.326
				c1.757,0.417,3.696,0.999,5.661,1.71l2.975-4.983C64.688,22.903,64.446,22.855,64.189,22.828z"/>
		</g>
	</g>
	<g>
		<path fill="#FFFFFF" d="M106.64,88.281c0.369-0.183,1.562-3.101,1.604-3.146c0.821-1.848,1.687-3.675,2.527-5.509
			c0.042-0.081,0.103-0.145,0.205-0.145c0.042,0,0.083,0.064,0.083,0.105c0,0.103-0.289,0.966-0.33,1.107
			c-0.286,0.885-0.555,1.75-0.821,2.632c-0.372,1.176-0.741,2.344-1.112,3.518c-0.244,0.821-0.533,1.664-0.533,2.526
			c0,0.516,0.062,1.029,0.228,1.501c0.183,0.513,0.411,1.007,0.411,1.562c0,0.679-0.247,1.317-1.029,1.317
			c-1.254,0-1.068-1.5-1.068-2.367c0-0.615,0-1.234-0.187-1.805c-0.205-0.699-1.026-0.885-1.026-1.113
			C105.592,88.303,106.393,88.386,106.64,88.281z M107.381,83.43c-1.09,0-0.763-1.604-1.134-2.405
			c-0.081-0.183-0.45-0.779-0.45-0.882c0-0.041,0.042-0.041,0.083-0.041c0.122,0,0.43,0.144,0.555,0.186
			c0.802,0.308,1.85,1.189,1.85,2.116C108.285,82.958,107.955,83.43,107.381,83.43z M109.106,79.482
			c-0.269,0-0.535-0.058-0.699-0.285c-0.391-0.575-0.35-1.337-0.802-1.912c-0.103-0.147-0.554-0.618-0.596-0.699
			c-0.02-0.022-0.042-0.063-0.042-0.105c0-0.103,0.022-0.142,0.144-0.142c0.494,0,1.317,0.328,1.789,0.513
			c0.555,0.208,1.068,0.555,1.068,1.193v0.228C109.969,78.889,109.866,79.482,109.106,79.482z M114.699,81.376h-2.405l-0.33,0.286
			l-0.699-1.129c0.391,0.02,0.843,0.102,1.254,0.102h2.181v-2.898c0-0.411-0.022-0.863-0.083-1.256
			c-0.042-0.203-0.205-0.533-0.205-0.696c0-0.145,0.247-0.125,0.371-0.125c0.43,0,2.258,0.433,2.258,0.904
			c0,0.266-0.43,0.474-0.635,0.574v3.498h1.625c0.122-0.146,0.84-0.987,1.026-0.987c0.247,0,1.048,0.923,1.231,1.109
			c0.105,0.083,0.167,0.205,0.167,0.33c0,0.167-0.103,0.289-0.269,0.289h-3.781v4.172h2.116c0.125-0.144,0.924-1.045,1.068-1.045
			c0.208,0,1.048,0.943,1.195,1.106c0.1,0.103,0.224,0.247,0.224,0.413c0,0.187-0.205,0.245-0.371,0.245h-4.849
			c0.203,0.125,1.148,0.657,1.148,0.926c0,0.183-0.513,0.35-0.635,0.411c-0.349,0.555-0.721,1.131-1.109,1.667
			c-0.76,1.087-1.645,2.113-2.507,3.126c1.808-0.066,3.617-0.125,5.425-0.21c-0.308-0.965-0.638-1.85-1.173-2.691
			c-0.08-0.103-0.266-0.346-0.266-0.494c0-0.042,0-0.122,0.083-0.122c0.125,0,0.494,0.289,0.594,0.369
			c1.256,0.924,3.023,2.61,3.023,4.316c0,0.638-0.308,1.132-1.007,1.132c-0.968,0-1.029-1.215-1.17-1.934
			c-2.261,0.558-4.524,1.068-6.743,1.789l-0.763-1.994c0.27-0.125,0.516-0.308,0.741-0.514c0.475-0.452,0.904-1.212,1.257-1.767
			c0.718-1.173,1.581-2.654,1.869-4.011h-3.7l-0.331,0.308l-0.699-1.149c0.391,0.039,0.843,0.122,1.257,0.122h3.617V81.376z"/>
		<path fill="#FFFFFF" d="M132.052,86.517l-0.35,0.266l-0.719-1.112c0.389,0.042,0.841,0.125,1.254,0.125h4.624
			c0.083-0.083,0.68-0.863,0.865-0.863c0.164,0,1.232,1.232,1.232,1.459c0,0.102-0.164,0.125-0.247,0.125h-3.761
			c0.186,0.103,1.007,0.452,1.007,0.718c0,0.186-0.452,0.186-0.574,0.186c-0.413,0.33-0.802,0.655-1.193,0.985
			c0.123,0.022,0.472,0.083,0.472,0.269c0,0.183-0.183,0.327-0.328,0.408v2.962c0.738-0.308,1.437-0.638,2.136-0.987
			c0.042-0.022,0.064-0.022,0.103-0.022c0.064,0,0.145,0.042,0.145,0.105c0,0.061-0.039,0.122-0.081,0.164
			c-0.411,0.372-0.76,0.719-1.132,1.129c-0.638,0.702-1.251,1.378-1.831,2.119l-1.212-1.604c0.167-0.186,0.33-0.41,0.33-0.676
			l0.02-2.818c-0.616,0.516-1.254,1.09-1.911,1.5l-0.741,0.452c-0.042,0.022-0.083,0.044-0.144,0.044
			c-0.042,0-0.083-0.044-0.083-0.105c0-0.042,0.042-0.103,0.064-0.145c0.494-0.513,0.965-1.029,1.42-1.564
			c0.841-0.962,1.723-1.972,2.341-3.121H132.052z M134.373,79.751h-1.684l-0.369,0.267l-0.721-1.107
			c0.907,0.142,1.872,0.164,2.773,0.119v-1.745c0-0.33-0.039-0.638-0.103-0.946c-0.017-0.206-0.247-0.555-0.247-0.658
			c0-0.063,0.125-0.125,0.166-0.125c0.267,0,2.056,0.452,2.28,0.619c0.103,0.081,0.186,0.183,0.186,0.328
			c0,0.164-0.388,0.349-0.535,0.413v2.113h0.474c0.083-0.08,0.658-0.757,0.824-0.757c0.205,0,1.231,1.109,1.231,1.314
			c0,0.144-0.205,0.164-0.308,0.164h-2.222v2.386h3.043c-0.022-0.311-0.042-0.616-0.042-0.926c0-0.76,0.105-1.521,0.105-2.28
			c0-0.394-0.022-0.782-0.145-1.132c-0.042-0.167-0.125-0.369-0.125-0.513c0-0.186,0.125-0.083,0.125-0.164
			c0-0.145-0.125-0.474-0.144-0.66c-0.042-0.308-0.289-0.657-0.289-0.78c0-0.083,0.103-0.102,0.186-0.102
			c0.43,0,2.572,0.535,2.572,0.882c0,0.288-0.292,0.391-0.497,0.516c-0.08,0.821-0.125,1.665-0.125,2.485
			c0,0.885,0.044,1.792,0.063,2.674h2.672c0.125-0.122,0.824-0.926,1.07-0.926c0.142,0,0.389,0.25,0.472,0.33
			c0.144,0.145,0.946,0.863,0.946,1.11c0,0.164-0.184,0.208-0.308,0.208h-4.791c0.042,2.098,0.205,3.021,0.741,5.055
			c0.122-0.206,0.228-0.408,0.327-0.635c0.208-0.475,0.846-2.796,0.824-3.249c0-0.064,0-0.125,0-0.205c0-0.064,0-0.103,0.083-0.103
			c0.308,0,2.178,0.821,2.178,1.107c0,0.166-0.43,0.291-0.555,0.33c-0.369,0.949-0.741,1.912-1.171,2.837
			c-0.288,0.639-0.638,1.232-0.987,1.831c0.289,0.533,0.657,1.209,1.09,1.645c0.103,0.122,0.472,0.491,0.638,0.491
			c0.388,0,1.049-1.931,1.19-2.325c0.022-0.058,0.064-0.103,0.144-0.103c0.083,0,0.103,0.083,0.103,0.144
			c0,0.292-0.103,0.619-0.145,0.885c-0.08,0.6-0.164,1.215-0.164,1.812c0,0.616,0.289,1.254,0.289,1.85
			c0,0.267-0.163,0.532-0.474,0.532c-0.328,0-0.782-0.288-1.026-0.452c-1.235-0.84-1.892-1.686-2.713-2.921
			c-1.235,1.257-2.078,1.851-3.598,2.652c-0.103,0.063-0.599,0.352-0.699,0.352c-0.042,0-0.103-0.042-0.103-0.083
			c0-0.08,0.103-0.186,0.161-0.225c1.442-1.253,2.532-2.449,3.559-4.071c-0.863-2.303-1.273-4.686-1.398-7.152h-7.708l-0.372,0.264
			l-0.718-1.107c0.41,0.039,0.843,0.122,1.256,0.122h2.71V79.751z M134.024,83c0.618,0,2.078,0.843,2.078,1.52
			c0,0.66-0.145,1.173-0.844,1.173c-0.228,0-0.638-0.022-0.699-0.308c-0.08-0.411-0.019-0.843-0.144-1.256
			c-0.102-0.392-0.183-0.513-0.43-0.882l-0.064-0.125C133.921,83.038,133.943,83,134.024,83z M137.624,87.398
			c0.02-0.061,0.02-0.144,0.039-0.205c0.269,0,1.459,0.943,1.459,1.132c0,0.141-0.43,0.141-0.513,0.141
			c-0.516,0.269-1.007,0.536-1.501,0.844c0.658,0.535,1.604,1.09,1.604,2.058c0,0.555-0.369,0.962-0.946,0.962
			c-0.183,0-0.327-0.058-0.45-0.183c-0.125-0.144-0.271-0.618-0.33-0.801c-0.247-0.658-0.6-1.212-1.01-1.789
			c-0.247-0.353-0.45-0.575-0.783-0.844c-0.038-0.039-0.1-0.103-0.122-0.164c0.022-0.083,0.083-0.103,0.144-0.103
			c0.289,0,1.071,0.433,1.378,0.597C136.842,88.713,137.602,87.787,137.624,87.398z M141.732,76.977
			c0.308,0,0.926,0.308,1.215,0.452c0.391,0.203,0.863,0.511,1.049,0.943c0.102,0.228,0.224,0.558,0.224,0.802
			c0,0.557-0.369,1.071-0.965,1.071c-0.536,0-0.802-0.331-0.866-0.821c-0.058-0.597-0.122-1.276-0.472-1.811
			c-0.019-0.039-0.347-0.491-0.347-0.513C141.571,76.977,141.632,76.977,141.732,76.977z"/>
		<path fill="#FFFFFF" d="M160.134,83.205c-1.232,1.132-2.053,1.706-3.492,2.508c-0.061,0.041-0.125,0.063-0.208,0.063
			c-0.042,0-0.122-0.022-0.122-0.083c0-0.061,0.061-0.123,0.103-0.167c1.026-1.046,1.789-1.931,2.671-3.082
			c0.353-0.43,1.254-1.728,1.398-2.18c0.022-0.062,0.083-0.308,0.186-0.308c0.167,0,2.322,0.657,2.322,1.049
			c0,0.288-0.491,0.327-0.699,0.327l-0.715,0.66l2.671,0.022c0.142-0.083,0.984-0.577,1.129-0.577c0.147,0,1.872,1.253,1.872,1.52
			c0,0.247-0.74,0.33-0.885,0.349c-0.863,0.721-1.686,1.44-2.571,2.097c1.09,0.574,2.242,1.07,3.412,1.378
			c0.907,0.247,1.831,0.472,2.757,0.536c0.103,0.019,0.719,0,0.719,0.186c0,0.202-0.494,0.324-0.658,0.388
			c-0.205,0.081-0.41,0.244-0.616,0.369c-0.433,0.289-0.516,0.433-0.76,0.888c-1.317-0.436-3.312-1.155-4.463-1.853
			c-0.555-0.328-1.068-0.699-1.559-1.11c-1.256,0.782-2.491,1.356-3.867,1.933c0.574,0.142,1.151,0.347,1.706,0.574h4.727
			c0.103-0.105,0.372-0.413,0.516-0.413c0.122,0,0.41,0.166,0.533,0.228c0.186,0.103,1.298,0.555,1.298,0.862
			c0,0.208-0.353,0.433-0.497,0.536v3.042c0,0.452,0.042,0.902,0.064,1.356c-0.68,0.308-1.173,0.414-1.914,0.514l0.064-1.068h-5.14
			v0.638c-0.616,0.225-1.234,0.388-1.87,0.491c0.02-0.575,0.1-1.171,0.1-1.767v-4.294c0-0.186-0.058-0.353-0.1-0.516
			c-0.557,0.206-2.796,1.007-3.29,1.007c-0.083,0-0.164-0.039-0.164-0.123c0-0.144,0.799-0.435,0.943-0.494
			c1.953-0.843,4.091-2.263,5.778-3.576C160.977,84.52,160.544,83.904,160.134,83.205z M167.843,79.113
			c0.125-0.125,0.535-0.616,0.782-0.616c0.164,0,0.388,0.183,0.494,0.286l1.048,0.948c0.187,0.164,0.37,0.392,0.37,0.638
			c0,0.347-0.308,0.513-0.616,0.513c-0.247,0-0.513-0.042-0.76-0.042c-1.071,0-1.831,0.965-2.078,0.965
			c-0.081-0.042-0.081-0.061-0.081-0.1c0-0.064,0.738-1.606,0.863-1.851h-10.236c-0.064,0.882-0.083,1.476-0.926,1.95
			c-0.228,0.144-0.494,0.225-0.76,0.225c-0.452,0-0.866-0.347-0.866-0.821c0-0.802,0.866-1.232,1.314-1.768
			c0.147-0.144,0.475-0.676,0.539-0.862c0.019-0.122,0.039-0.66,0.161-0.66c0.289,0,0.414,1.068,0.455,1.193H167.843z
			 M165.254,93.029v-3.617h-4.916l-0.225,0.145v3.472H165.254z M162.253,84.48c0.657-0.538,1.273-1.154,1.869-1.75l-3.37-0.022
			l-0.311,0.25C160.999,83.576,161.535,84.07,162.253,84.48z M162.808,78.703c-1.337,0-0.823-1.603-1.231-2.488
			c-0.147-0.286-0.578-0.68-0.578-0.802c0-0.08,0.062-0.102,0.142-0.102c0.125,0,0.228,0.022,0.353,0.063
			c0.799,0.161,2.241,0.616,2.424,1.52c0.042,0.183,0.061,0.372,0.061,0.555C163.979,78.167,163.548,78.703,162.808,78.703z"/>
		<path fill="#FFFFFF" d="M194.282,93.709c-0.676,0.064-1.025,0.596-1.539,1.01c-1.686-1.01-2.981-2.244-3.966-3.95
			c-0.33-0.574-0.64-1.19-0.763-1.851c-0.103-0.532-0.186-1.09-0.267-1.642h-1.911c0.244,0.183,1.151,0.86,1.151,1.212
			c0,0.264-0.763,0.205-0.926,0.225c-0.472,0.269-0.946,0.536-1.44,0.741c0.145,0.081,0.475,0.247,0.475,0.433
			c0,0.144-0.33,0.391-0.413,0.45v2.183c0.577-0.122,3.639-0.888,3.723-0.888c0.061,0,0.144,0.022,0.144,0.105
			c0,0.142-0.885,0.594-1.007,0.66c-1.359,0.777-2.713,1.703-3.947,2.649l-0.946-2.078c0.331-0.205,0.411-0.349,0.411-0.737v-2.036
			c-0.824,0.43-1.687,0.882-2.591,1.129c-0.205,0.061-0.471,0.186-0.677,0.186c-0.022,0-0.103-0.022-0.103-0.059
			c0-0.127,0.039-0.147,0.145-0.208c1.747-1.029,3.595-2.424,4.912-3.966h-3.639l-0.289,0.228l-0.76-1.01
			c0.452,0.039,0.945,0.125,1.397,0.125h11.267c0.104-0.125,0.758-0.885,0.966-0.885c0.267,0,1.026,0.799,1.212,0.965
			c0.08,0.083,0.225,0.247,0.225,0.369c0,0.144-0.103,0.208-0.225,0.208h-6.743c0.577,1.189,0.945,1.786,1.767,2.795
			c0.599-0.599,1.256-1.192,1.708-1.914c0.1-0.186,0.306-0.452,0.347-0.677c0.022-0.042,0.063-0.042,0.083-0.042
			c0.311,0,1.583,1.334,1.583,1.642c0,0.269-0.615,0.247-0.781,0.247c-0.822,0.413-1.665,0.804-2.508,1.173
			c1.5,1.44,2.427,1.809,4.338,2.693c0.145,0.061,0.475,0.164,0.475,0.35C195.17,93.729,194.43,93.709,194.282,93.709z
			 M188.61,80.511h-3.332v1.212h1.132c0.206-0.285,0.414-0.554,0.619-0.84c0.266,0,1.85,1.048,1.85,1.193
			c0,0.164-0.516,0.513-0.618,0.574l-0.022,1.029c0,0.349-0.43,0.901-0.962,1.006c0.821,0.103,1.889,0.514,1.889,1.129
			c0,0.516-0.308,0.782-0.821,0.782c-0.208,0-0.433-0.064-0.597-0.205c-0.164-0.125-0.349-0.577-0.394-0.783
			c-0.078-0.474-0.408-0.616-0.635-0.798c-0.164,0.038-0.164,0.038-0.369,0.061c-0.022-0.433-0.208-1.009-0.577-1.295
			c-0.061-0.064-0.349-0.208-0.349-0.308c0-0.064,0-0.125,0.063-0.147c0.203,0.022,0.555,0.147,0.738,0.166
			c0.269,0.039,0.372-0.288,0.372-0.43v-0.413h-1.318v1.645c-0.019,0.43,0.083,1.029,0.145,1.437
			c-0.594,0.208-1.356,0.474-1.972,0.619c0.08-0.411,0.205-1.296,0.205-1.604v-2.097h-0.904l-0.269,0.186v1.09
			c0,0.183,0.064,0.491,0.064,0.718c-0.414,0.125-1.215,0.433-1.851,0.574c0.039-0.84,0.122-0.763,0.122-1.071v-1.559
			c0-0.125-0.039-0.228-0.083-0.804c-0.019-0.203-0.019-0.43-0.019-0.513c0-0.103,0.144-0.122,0.228-0.122
			c0.782,0.311,1.045,0.389,1.789,0.763l0.924,0.016v-1.212h-2.857l-0.33,0.269l-0.699-1.109c0.349,0.039,0.762,0.1,1.132,0.1h2.754
			v-1.292h-2.097c-0.247,0.327-0.741,0.696-1.007,0.863c-0.041,0.061-0.413,0.286-0.513,0.286c-0.064-0.061-0.083-0.1-0.083-0.145
			c0-0.1,0.619-1.292,0.721-1.542c0.267-0.594,0.327-1.292,0.327-1.601c0-0.206,0-0.35-0.02-0.535
			c0.042-0.042,0.1-0.081,0.142-0.081c0.225,0,1.892,0.699,1.892,0.985c0,0.166-0.471,0.413-0.594,0.493
			c-0.105,0.247-0.311,0.331-0.455,0.555h1.687v-0.68c0-0.347,0-0.718-0.061-1.068c-0.042-0.183-0.208-0.328-0.208-0.494
			c0-0.083,0.085-0.103,0.144-0.103c0.353,0,2.488,0.577,2.488,0.866c0,0.144-0.638,0.552-0.741,0.638v0.84h0.927
			c0.123-0.144,0.597-0.824,0.844-0.824c0.144,0,0.388,0.127,0.471,0.228l0.718,0.718c0.083,0.105,0.228,0.205,0.228,0.372
			c0,0.164-0.144,0.228-0.286,0.228h-2.902v1.292h1.44c0.083-0.081,0.516-0.924,0.741-0.924c0.144,0,0.555,0.228,0.638,0.328
			c0.141,0.083,0.946,0.827,0.946,1.112C189.043,80.472,188.754,80.511,188.61,80.511z M190.912,78.664v2.735
			c0,0.632,0.064,0.924,0.083,1.559c-0.494,0.247-1.109,0.494-1.728,0.554c0.042-0.596,0.122-0.984,0.122-1.581v-3.104
			c0-0.291-0.02-0.577-0.081-0.865c-0.042-0.186-0.186-0.369-0.186-0.554c0-0.103,0.145-0.103,0.206-0.103
			c0.372,0,2.119,0.433,2.119,0.801C191.448,78.333,191.076,78.558,190.912,78.664z M194.038,77.244v7.029
			c0,0.247-0.041,0.475-0.102,0.702c-0.186,0.779-1.481,0.882-2.12,0.966c-0.102-0.719-0.164-1.091-0.862-1.42
			c-0.08-0.039-0.555-0.225-0.555-0.347c0-0.083,0.103-0.125,0.183-0.125c0.452,0,0.907,0.081,1.337,0.081
			c0.411,0,0.494-0.225,0.494-0.594v-6.333c0-0.225-0.022-0.433-0.039-0.657c-0.044-0.244-0.25-0.535-0.25-0.74
			c0-0.103,0.125-0.123,0.206-0.123c0.413,0,2.241,0.619,2.241,1.005C194.571,76.933,194.221,77.138,194.038,77.244z"/>
		<path fill="#FFFFFF" d="M218.356,76.114c0.145,0,0.373,0.203,0.475,0.286c0.166,0.164,1.027,0.801,1.027,1.151
			c0,0.186-0.143,0.269-0.309,0.269h-5.691c0.145,0.039,0.719,0.244,0.719,0.452c0,0.186-0.248,0.308-0.393,0.391v2.3h2.16
			c0.143-0.164,0.514-0.738,0.781-0.738c0.27,0,1.213,0.657,1.416,0.78c0.104,0.061,0.393,0.25,0.393,0.394
			c0,0.244-0.494,0.571-0.635,0.696v10.28c0,0.552,0.08,1.17,0.141,1.745c-0.656,0.205-1.314,0.392-1.992,0.513l0.1-1.312h-8.756
			v0.574c-0.594,0.205-1.213,0.369-1.828,0.472c0.041-0.638,0.121-1.337,0.121-1.97V82.156c0-0.41-0.039-0.801-0.061-1.192
			c-0.02-0.269-0.186-0.677-0.186-0.799c0-0.086,0.104-0.125,0.166-0.125c0.309,0,1.912,0.741,2.262,0.924h1.418
			c0-1.068,0.021-2.097-0.123-3.143h-4.297l-0.33,0.308l-0.677-1.151c0.368,0.039,0.78,0.1,1.151,0.1h11.738
			C217.227,77.016,218.155,76.114,218.356,76.114z M216.547,92.558V81.746h-2.363v6.269c0,0.311,0,0.516,0.369,0.516
			c0.641,0,0.887-0.411,1.113-0.411c0.41,0,0.678,0.699,0.678,1.03c0,1.023-1.398,0.942-2.1,0.942c-0.777,0-1.561-0.205-1.561-1.131
			v-7.215h-1.479c-0.061,2.197,0.02,5.201-1.254,7.073c-0.391,0.594-0.865,1.107-1.379,1.581c-0.125,0.08-0.41,0.391-0.555,0.391
			c-0.082-0.042-0.082-0.083-0.082-0.122c0-0.105,0.246-0.496,0.311-0.597c0.365-0.618,0.635-1.337,0.82-2.016
			c0.574-2.078,0.574-4.194,0.617-6.311h-1.623l-0.27,0.247v10.566H216.547z M211.616,78.189c0,0.144-0.266,0.369-0.348,0.474
			l-0.043,2.3h1.459v-1.581c0-0.536-0.021-1.049-0.102-1.562h-1.828C210.92,77.84,211.616,77.984,211.616,78.189z"/>
		<path fill="#FFFFFF" d="M233.575,76.339c0.041-0.039,0.617-0.68,0.66-0.68c0.141,0,1.645,1.027,1.645,1.193
			c0,0.186-0.576,0.516-0.701,0.596l-0.02,15.234c0,0.183-0.164,0.552-0.248,0.718c-0.227,0.494-1.602,0.719-2.096,0.802
			c-0.084-0.722-0.186-1.11-0.863-1.459c-0.125-0.061-0.678-0.288-0.678-0.452c0-0.061,0.08-0.061,0.123-0.061
			c0.451,0,0.924,0.122,1.395,0.122c0.371,0,0.824-0.08,0.824-0.554v-5.406h-1.869c-0.104,2.116-0.414,4.296-1.627,6.083
			c-0.307,0.474-0.637,0.926-0.965,1.356c-0.061,0.086-0.352,0.516-0.451,0.516c-0.061-0.042-0.104-0.083-0.104-0.1
			c0-0.067,0.203-0.519,0.248-0.619c0.246-0.555,0.43-1.154,0.596-1.729c0.309-1.006,0.49-2.097,0.615-3.165
			c0.164-1.542,0.205-3.084,0.248-4.646c0.02-1.07,0.041-2.119,0.041-3.187c0-1.046,0.061-2.097,0.061-3.146
			c0-0.491,0.02-1.253-0.164-1.748c-0.041-0.081-0.143-0.286-0.143-0.391c0-0.083,0.082-0.103,0.143-0.103
			c0.164,0,1.809,0.741,2.014,0.824H233.575z M233.616,85.671v-3.964h-1.789c0,1.312-0.041,2.629-0.08,3.964H233.616z
			 M233.616,80.963v-3.886h-1.418l-0.33,0.25v3.637H233.616z M241.141,76.461c0.244-0.227,0.471-0.491,0.678-0.76
			c0.227-0.02,1.275,0.863,1.5,1.029c0.061,0.039,0.287,0.225,0.287,0.308c0,0.123-0.49,0.475-0.572,0.555l-0.107,4.152
			c-0.041,1.481-1.006,1.684-2.26,1.85c-0.084-0.738-0.186-1.151-0.885-1.459c-0.104-0.042-0.719-0.266-0.719-0.372
			c0-0.058,0.104-0.122,0.164-0.122c0.475,0.064,0.969,0.142,1.439,0.142c0.578,0,0.596-0.286,0.615-0.779l0.127-3.823h-2.857
			l-0.27,0.203v7.24h3.289c0.123-0.122,0.451-0.661,0.639-0.661c0.145,0,1.336,0.991,1.52,1.132
			c0.064,0.039,0.164,0.142,0.164,0.228c0,0.184-0.514,0.472-0.658,0.577c-0.494,1.62-1.109,3.143-1.826,4.663
			c0.883,1.295,1.826,2.549,3.1,3.473c0.041,0.044,0.084,0.083,0.084,0.144c0,0.186-0.594,0.167-0.719,0.167
			c-0.453,0.02-1.049,0.286-1.459,0.472c-0.658-0.946-1.357-1.851-1.91-2.876c-0.783,0.924-1.543,1.786-2.447,2.569
			c-0.084,0.061-0.309,0.288-0.41,0.288c-0.086-0.167,0.182-0.552,0.244-0.638l0.926-1.439c0.41-0.635,0.719-1.398,1.051-2.097
			c-0.189-0.533-0.371-1.068-0.475-1.623c-0.082-0.494-0.125-0.988-0.166-1.498c-0.041-0.722-0.1-1.443-0.184-2.164h-0.762v5.964
			c0,0.658,0.063,1.356,0.082,2.036c-0.535,0.267-1.109,0.472-1.705,0.555c0.02-0.76,0.08-1.542,0.08-2.324V77.138
			c0-0.389-0.02-0.904-0.164-1.273c-0.02-0.039-0.102-0.225-0.102-0.266c0-0.083,0.041-0.123,0.125-0.123
			c0.367,0,1.746,0.78,2.098,0.985H241.141z M241.59,85.34h-2.094c0.225,1.359,0.49,2.344,1.049,3.598
			C241.036,87.771,241.325,86.575,241.59,85.34z"/>
	</g>
	<g>
		<g>
			<g>
				<path fill="#FFFFFF" d="M125.007,19.485c-0.029,0.518-0.041,1.056-0.041,1.613c-0.168,0-0.332,0.006-0.483,0.021
					c-0.154,0.017-0.313,0.037-0.483,0.065c0.029-0.086-0.004-0.237-0.104-0.46c-0.096-0.225-0.174-0.364-0.231-0.419l-0.334-0.211
					c-0.028,0-0.292,0-0.798,0c-0.501,0-1.118,0.008-1.842,0.021c-0.727,0.014-1.538,0.022-2.434,0.022
					c-0.866,0-1.703,0.006-2.514,0.021c-0.811,0.016-1.523,0.018-2.137,0.018c-0.616,0-1.036,0-1.257,0
					c0.027,2.183,0.041,4.348,0.041,6.502c0,2.121,0,4.274,0,6.455c0.979,0.031,1.943,0.049,2.893,0.062
					c0.95,0.016,1.912-0.004,2.893-0.062c0.585-0.029,1.118-0.244,1.593-0.649s0.796-0.889,0.964-1.447
					c0.139-0.141,0.307-0.215,0.501-0.231c0.194-0.014,0.338,0.09,0.421,0.313v6.373l-0.125,0.172l-0.46,0.164l-0.338-0.25
					c-0.139-0.587-0.448-1.085-0.923-1.49c-0.475-0.401-1.02-0.623-1.634-0.649c-0.98-0.055-1.943-0.07-2.893-0.043
					c-0.95,0.031-1.914,0.031-2.893,0c0,1.957-0.021,3.916-0.062,5.869c-0.041,1.957-0.051,3.916-0.022,5.873
					c0,0.753,0.264,1.396,0.796,1.926c0.225,0.25,0.424,0.42,0.606,0.504c0.184,0.086,0.356,0.147,0.526,0.188
					c0.167,0.041,0.33,0.076,0.481,0.104c0.153,0.027,0.342,0.084,0.567,0.168l0.125,0.42l-0.376,0.251
					c-1.595,0-3.194,0.019-4.801,0.063c-1.605,0.041-3.208,0.119-4.798,0.229l-0.129-0.043l-0.207-0.42l0.375-0.291
					c0.758-0.084,1.394-0.414,1.908-0.987c0.518-0.573,0.79-1.236,0.819-1.992c0-0.417,0.012-1.102,0.041-2.053
					c0.028-0.95,0.049-2.068,0.063-3.355c0.014-1.284,0.028-2.684,0.043-4.188c0.012-1.511,0.02-3.034,0.02-4.573
					c0-1.535-0.008-3.03-0.02-4.485c-0.015-1.451-0.035-2.766-0.063-3.94c-0.029-1.171-0.066-2.154-0.104-2.934
					c-0.043-0.782-0.106-1.273-0.188-1.468c-0.225-0.528-0.561-0.981-1.007-1.341c-0.446-0.364-0.95-0.573-1.511-0.628l-0.417-0.546
					l0.379-0.209c1.59,0.113,3.187,0.197,4.776,0.252c1.597,0.057,3.189,0.082,4.782,0.082c1.619,0,3.228-0.039,4.819-0.125
					c1.593-0.084,3.185-0.149,4.78-0.209c0.142,0,0.231,0.043,0.272,0.125c0.041,0.084,0.119,0.158,0.231,0.209
					C125.063,18.431,125.036,18.967,125.007,19.485z"/>
				<path fill="#FFFFFF" d="M153.847,51.032c-1.062-0.055-2.131-0.099-3.204-0.125c-1.077-0.027-2.147-0.057-3.208-0.084
					c-0.451-0.026-0.897-0.035-1.343-0.021s-0.895-0.006-1.341-0.065c-0.113-0.027-0.199-0.11-0.25-0.25
					c-0.058-0.14-0.101-0.238-0.127-0.293l0.333-0.211c0.393-0.026,0.651-0.153,0.778-0.376c0.123-0.223,0.217-0.489,0.271-0.796
					c0-0.058-0.097-0.356-0.293-0.901c-0.196-0.546-0.446-1.218-0.755-2.014c-0.307-0.796-0.647-1.667-1.028-2.619
					c-0.376-0.952-0.733-1.851-1.066-2.704c-0.338-0.852-0.639-1.599-0.903-2.242c-0.264-0.645-0.44-1.077-0.524-1.302h-8.844
					c-0.113,0.28-0.303,0.743-0.569,1.384c-0.264,0.643-0.571,1.377-0.919,2.201c-0.35,0.829-0.714,1.691-1.091,2.6
					c-0.376,0.909-0.723,1.763-1.027,2.557c-0.307,0.798-0.561,1.484-0.755,2.055c-0.195,0.573-0.281,0.927-0.252,1.067
					c0.057,0.532,0.205,0.841,0.442,0.925c0.235,0.083,0.55,0.194,0.941,0.335v0.417l-0.376,0.209
					c-1.259,0.029-2.496,0.078-3.709,0.147c-1.216,0.072-2.44,0.104-3.67,0.104c-0.053,0-0.166-0.166-0.332-0.504l0.375-0.25
					c0.923-0.055,1.748-0.385,2.473-0.985c0.729-0.602,1.286-1.306,1.679-2.119v0.043c1.396-3.327,2.739-6.645,4.025-9.958
					c1.283-3.31,2.585-6.645,3.897-9.998l2.557-6.707c0.194-0.446,0.376-0.929,0.548-1.447c0.164-0.518,0.36-0.987,0.586-1.404
					c0.082-0.141,0.221-0.209,0.419-0.209c0.223,0,0.375,0.068,0.458,0.209l0.755,1.885l2.516,6.668
					c1.341,3.49,2.667,6.979,3.981,10.458c1.313,3.48,2.725,6.94,4.236,10.377c0.391,0.866,0.956,1.599,1.695,2.201
					c0.741,0.6,1.589,0.93,2.539,0.985l0.46,0.544L153.847,51.032z M136.787,25.545c-0.616,1.535-1.202,3.075-1.763,4.61
					c-0.559,1.538-1.159,3.063-1.799,4.567c1.173,0.031,2.352,0.037,3.542,0.024c1.188-0.017,2.366-0.024,3.542-0.024
					L136.787,25.545z"/>
				<path fill="#FFFFFF" d="M181.099,47.594c-0.921,0.755-1.855,1.354-2.789,1.802c-0.938,0.45-1.896,0.792-2.872,1.03
					c-0.979,0.237-1.99,0.391-3.04,0.46c-1.048,0.07-2.145,0.104-3.29,0.104c-2.626-0.027-5.052-0.391-7.275-1.089
					c-2.219-0.698-4.142-1.74-5.765-3.124c-1.619-1.384-2.89-3.118-3.813-5.2c-0.923-2.082-1.384-4.506-1.384-7.271
					c0-2.77,0.461-5.186,1.384-7.253c0.923-2.067,2.194-3.801,3.813-5.197c1.624-1.4,3.546-2.455,5.765-3.167
					c2.223-0.71,4.632-1.083,7.234-1.11c1.089,0,2.137,0.027,3.145,0.082c1.005,0.057,1.983,0.197,2.932,0.42
					c0.952,0.223,1.881,0.54,2.79,0.943c0.907,0.405,1.822,0.944,2.747,1.615l0.166,0.293c0,0.137-0.006,0.419-0.022,0.839
					c-0.012,0.419-0.027,0.857-0.041,1.318c-0.014,0.458-0.041,0.888-0.084,1.279c-0.043,0.393-0.076,0.616-0.104,0.669
					l-0.335,0.209l-0.42-0.164c-1.173-1.593-2.598-2.817-4.276-3.668c-1.674-0.854-3.429-1.341-5.259-1.468
					c-1.832-0.129-3.662,0.09-5.492,0.647c-1.83,0.561-3.466,1.449-4.903,2.666c-1.441,1.214-2.623,2.751-3.544,4.608
					c-0.925,1.861-1.384,4.006-1.384,6.438c0,1.871,0.333,3.703,1.005,5.488c0.671,1.791,1.679,3.355,3.02,4.696h-0.043
					c1.063,1.148,2.264,2.049,3.605,2.702c1.341,0.661,2.739,1.093,4.194,1.302c1.452,0.209,2.925,0.203,4.422-0.021
					c1.495-0.225,2.942-0.657,4.338-1.3h-0.041c0.95-0.503,1.822-1.118,2.621-1.845c0.796-0.725,1.5-1.537,2.117-2.432l0.125-0.082
					h0.419l0.293,0.333c0.028,0.698,0.055,1.392,0.084,2.074c0.028,0.688,0.057,1.378,0.082,2.078L181.099,47.594z"/>
				<path fill="#FFFFFF" d="M216.479,51.032c-2.236-0.137-4.438-0.223-6.622-0.252c-0.505,0-1.02,0.008-1.552,0.022
					c-0.528,0.014-1.048-0.006-1.55-0.065c-0.112-0.027-0.194-0.11-0.251-0.25c-0.058-0.14-0.099-0.238-0.125-0.293l0.336-0.211
					c0.806,0.029,1.451-0.244,1.926-0.817c0.475-0.571,0.711-1.236,0.711-1.992c0-1.955-0.033-3.912-0.101-5.869
					c-0.072-1.953-0.106-3.914-0.106-5.869c-2.991,0.026-5.97,0.035-8.93,0.021c-2.963-0.012-5.938-0.021-8.93-0.021
					c0,1.955-0.041,3.916-0.125,5.869c-0.086,1.957-0.115,3.914-0.086,5.869c0,0.727,0.248,1.384,0.736,1.971
					c0.486,0.588,1.125,0.866,1.908,0.837l0.332,0.125l0.043,0.419l-0.375,0.209c-1.623,0.029-3.242,0.065-4.864,0.106
					c-1.621,0.043-3.245,0.104-4.862,0.188c-0.115-0.027-0.192-0.104-0.231-0.229c-0.043-0.125-0.08-0.231-0.104-0.315l0.375-0.209
					c0.782-0.055,1.445-0.373,1.992-0.944s0.848-1.249,0.901-2.033c0.141-2.096,0.223-4.199,0.25-6.31
					c0.031-2.11,0.045-4.213,0.045-6.309c0.029-2.235,0.029-4.479,0-6.729c-0.028-2.25-0.125-4.491-0.294-6.731
					c-0.053-0.891-0.35-1.562-0.88-2.01c-0.53-0.446-1.202-0.753-2.012-0.921c-0.111-0.028-0.201-0.121-0.271-0.272
					c-0.072-0.154-0.119-0.26-0.147-0.315l0.379-0.168c1.116,0.06,2.221,0.099,3.308,0.125c1.091,0.027,2.197,0.072,3.313,0.127
					c0.503,0,1.021-0.006,1.554-0.021c0.527-0.014,1.045,0.004,1.551,0.063c0.111,0.027,0.195,0.108,0.25,0.25
					c0.054,0.141,0.097,0.237,0.125,0.294l-0.375,0.207c-0.783-0.027-1.422,0.254-1.908,0.839c-0.489,0.587-0.736,1.245-0.736,1.969
					c0,1.959,0.037,3.914,0.108,5.871c0.07,1.957,0.103,3.912,0.103,5.869c2.991,0,5.967,0,8.93,0c2.96,0,5.938-0.014,8.93-0.043
					c0-1.955,0.034-3.912,0.106-5.869c0.067-1.955,0.101-3.912,0.101-5.867c0-0.364-0.068-0.712-0.207-1.048
					c-0.14-0.336-0.321-0.637-0.545-0.903c-0.225-0.264-0.501-0.473-0.839-0.631c-0.336-0.149-0.687-0.215-1.046-0.188l-0.336-0.123
					l-0.043-0.422l0.379-0.207c1.115-0.029,2.225-0.049,3.332-0.063c1.102-0.014,2.214-0.049,3.332-0.106
					c0.504-0.026,1.016-0.062,1.531-0.103c0.516-0.043,1.04-0.063,1.568-0.063c0.057,0,0.172,0.166,0.34,0.502l-0.381,0.251
					c-0.807,0.055-1.486,0.365-2.031,0.923c-0.544,0.561-0.843,1.245-0.9,2.051c-0.144,2.101-0.221,4.201-0.229,6.309
					c-0.017,2.115-0.041,4.217-0.065,6.312c0,2.235,0.008,4.481,0.021,6.729c0.017,2.248,0.103,4.494,0.274,6.729
					c0.058,0.753,0.237,1.316,0.545,1.677c0.307,0.362,0.643,0.636,1.003,0.816c0.364,0.185,0.716,0.33,1.048,0.442
					c0.336,0.11,0.573,0.291,0.717,0.542L216.479,51.032z"/>
				<path fill="#FFFFFF" d="M248.553,51.032c-1.064-0.055-2.133-0.099-3.206-0.125c-1.081-0.027-2.149-0.057-3.21-0.084
					c-0.446-0.026-0.896-0.035-1.343-0.021s-0.893-0.006-1.343-0.065c-0.11-0.027-0.192-0.11-0.25-0.25
					c-0.053-0.14-0.098-0.238-0.123-0.293l0.332-0.211c0.397-0.026,0.651-0.153,0.773-0.376c0.132-0.223,0.222-0.489,0.274-0.796
					c0-0.058-0.094-0.356-0.29-0.901c-0.192-0.546-0.446-1.218-0.758-2.014c-0.307-0.796-0.646-1.667-1.027-2.619
					c-0.377-0.952-0.733-1.851-1.064-2.704c-0.332-0.852-0.635-1.599-0.905-2.242c-0.266-0.645-0.442-1.077-0.524-1.302h-8.843
					c-0.115,0.28-0.304,0.743-0.565,1.384c-0.266,0.643-0.573,1.377-0.925,2.201c-0.349,0.829-0.713,1.691-1.09,2.6
					c-0.376,0.909-0.721,1.763-1.027,2.557c-0.307,0.798-0.557,1.484-0.753,2.055c-0.197,0.573-0.283,0.927-0.25,1.067
					c0.053,0.532,0.2,0.841,0.438,0.925c0.238,0.083,0.549,0.194,0.946,0.335v0.417l-0.381,0.209
					c-1.257,0.029-2.493,0.078-3.705,0.147c-1.221,0.072-2.44,0.104-3.673,0.104c-0.058,0-0.168-0.166-0.336-0.504l0.377-0.25
					c0.925-0.055,1.748-0.385,2.473-0.985c0.729-0.602,1.286-1.306,1.679-2.119v0.043c1.396-3.327,2.739-6.645,4.024-9.958
					c1.286-3.31,2.584-6.645,3.898-9.998l2.559-6.707c0.192-0.446,0.377-0.929,0.545-1.447s0.36-0.987,0.585-1.404
					c0.086-0.141,0.226-0.209,0.422-0.209c0.222,0,0.377,0.068,0.463,0.209l0.753,1.885l2.514,6.668
					c1.339,3.49,2.67,6.979,3.984,10.458c1.31,3.48,2.727,6.94,4.233,10.377c0.389,0.866,0.958,1.599,1.699,2.201
					c0.737,0.6,1.584,0.93,2.53,0.985l0.467,0.544L248.553,51.032z M231.489,25.545c-0.614,1.535-1.2,3.075-1.761,4.61
					c-0.562,1.538-1.159,3.063-1.802,4.567c1.171,0.031,2.354,0.037,3.542,0.024c1.187-0.017,2.37-0.024,3.541-0.024L231.489,25.545
					z"/>
			</g>
			<g>
				<path fill="#FFFFFF" d="M115.394,68.459c-0.305,0.25-0.612,0.45-0.923,0.598c-0.309,0.147-0.626,0.262-0.952,0.34
					c-0.323,0.08-0.659,0.129-1.005,0.153c-0.348,0.023-0.712,0.033-1.091,0.033c-0.88-0.008-1.687-0.125-2.424-0.353
					c-0.735-0.227-1.37-0.569-1.902-1.027s-0.948-1.032-1.25-1.722c-0.299-0.692-0.457-1.499-0.463-2.424
					c-0.01-0.915,0.135-1.72,0.436-2.412c0.301-0.688,0.723-1.261,1.265-1.72c0.541-0.458,1.179-0.807,1.914-1.042
					c0.737-0.235,1.54-0.358,2.41-0.366c0.371,0,0.721,0.008,1.05,0.024c0.327,0.021,0.649,0.065,0.964,0.141
					c0.315,0.074,0.623,0.178,0.923,0.312c0.301,0.135,0.606,0.313,0.909,0.536l0.055,0.096c0,0.047-0.002,0.139-0.006,0.278
					c-0.004,0.139-0.01,0.287-0.021,0.442c-0.008,0.16-0.018,0.303-0.028,0.432c-0.008,0.131-0.019,0.2-0.027,0.208l-0.11,0.07
					l-0.142-0.058c-0.434-0.581-0.962-1.013-1.58-1.29c-0.623-0.28-1.292-0.412-2.015-0.403c-0.686,0-1.312,0.121-1.883,0.362
					c-0.567,0.238-1.056,0.573-1.463,0.999c-0.408,0.426-0.725,0.93-0.95,1.507c-0.229,0.577-0.342,1.206-0.342,1.881
					c-0.008,0.637,0.094,1.247,0.313,1.82c0.217,0.573,0.557,1.091,1.019,1.554h-0.012c0.35,0.381,0.747,0.682,1.193,0.903
					c0.444,0.221,0.911,0.369,1.396,0.438c0.485,0.07,0.977,0.063,1.472-0.014c0.496-0.08,0.968-0.223,1.423-0.438h-0.014
					c0.315-0.166,0.604-0.369,0.868-0.61c0.264-0.241,0.498-0.51,0.702-0.804l0.041-0.029h0.139l0.099,0.11l0.055,1.376
					L115.394,68.459z"/>
				<path fill="#FFFFFF" d="M126.948,58.614c0,0.035,0,0.08,0,0.123c-0.268,0.021-0.493,0.125-0.673,0.315
					c-0.18,0.188-0.28,0.414-0.299,0.673c-0.074,0.897-0.113,1.822-0.119,2.768c-0.004,0.95,0.002,1.873,0.022,2.772
					c0.019,0.575-0.074,1.13-0.278,1.666c-0.103,0.268-0.233,0.522-0.395,0.757c-0.164,0.236-0.346,0.461-0.549,0.674
					c-0.426,0.444-0.896,0.766-1.411,0.966c-0.514,0.196-1.077,0.297-1.687,0.297c-0.602,0-1.167-0.099-1.695-0.291
					c-0.528-0.196-0.999-0.516-1.417-0.96c-0.203-0.211-0.381-0.434-0.534-0.666c-0.152-0.231-0.278-0.481-0.383-0.751
					c-0.211-0.544-0.309-1.105-0.291-1.679c0.019-0.899,0.029-1.82,0.029-2.764c0-0.954-0.033-1.879-0.096-2.778
					c-0.019-0.25-0.121-0.475-0.307-0.674c-0.186-0.198-0.407-0.303-0.665-0.313c-0.039-0.027-0.082-0.045-0.133-0.062
					c-0.051-0.012-0.053-0.057-0.006-0.133c0.019-0.016,0.06-0.037,0.123-0.053c0.547,0.016,1.087,0.037,1.619,0.053
					c0.532,0.021,1.071,0.033,1.617,0.041l0.056,0.043l0.071,0.14l-0.127,0.069c-0.186,0-0.354,0.053-0.505,0.162
					c-0.154,0.104-0.258,0.24-0.313,0.408c-0.019,0.047-0.031,0.141-0.035,0.286c-0.004,0.142-0.006,0.315-0.006,0.52
					c0,0.195,0,0.406,0,0.637c0,0.225,0.002,0.442,0.006,0.655c0.004,0.213,0.008,0.401,0.015,0.569
					c0.004,0.166,0.006,0.287,0.006,0.362c0.01,0.453,0.017,0.926,0.021,1.415c0.006,0.489,0.002,0.958-0.006,1.402
					c-0.008,0.462,0.059,0.888,0.207,1.277c0.149,0.389,0.385,0.749,0.71,1.083c0.313,0.325,0.671,0.567,1.068,0.73
					c0.397,0.16,0.819,0.244,1.263,0.244c0.473,0,0.905-0.09,1.292-0.266c0.389-0.176,0.725-0.414,1.007-0.714
					c0.283-0.303,0.5-0.653,0.653-1.054c0.153-0.405,0.229-0.837,0.229-1.3c-0.01-0.899-0.002-1.818,0.021-2.756
					c0.022-0.941,0.043-1.858,0.063-2.757c0.008-0.24-0.072-0.458-0.237-0.651c-0.168-0.197-0.379-0.283-0.639-0.266l-0.068-0.027
					l-0.043-0.139l0.125-0.082c0.453-0.021,0.905-0.037,1.353-0.049c0.451-0.015,0.901-0.029,1.355-0.049
					C126.952,58.537,126.948,58.577,126.948,58.614z"/>
				<path fill="#FFFFFF" d="M133.192,59.445c-0.006,0.149-0.012,0.299-0.022,0.446c-0.019,0.037-0.039,0.065-0.062,0.084
					c-0.024,0.019-0.049,0.035-0.076,0.055l-0.139-0.043c-0.168-0.184-0.365-0.33-0.592-0.436c-0.227-0.108-0.467-0.178-0.723-0.215
					c-0.254-0.037-0.508-0.043-0.764-0.022c-0.254,0.024-0.491,0.074-0.714,0.147c-0.25,0.082-0.465,0.213-0.645,0.389
					c-0.18,0.176-0.327,0.379-0.438,0.61c-0.102,0.192-0.147,0.393-0.139,0.598c0.019,0.36,0.133,0.688,0.348,0.979
					c0.213,0.292,0.473,0.569,0.784,0.833c0.31,0.264,0.647,0.526,1.007,0.792c0.36,0.264,0.696,0.548,1.007,0.852
					c0.309,0.307,0.569,0.645,0.776,1.015c0.209,0.371,0.317,0.792,0.328,1.265c0.019,0.766-0.235,1.417-0.764,1.941
					c-0.271,0.272-0.565,0.465-0.889,0.585c-0.325,0.121-0.671,0.176-1.042,0.166c-0.538-0.008-1.072-0.041-1.605-0.098
					c-0.532-0.053-1.062-0.145-1.588-0.276l-0.098-0.084c-0.047-0.184-0.08-0.375-0.104-0.569c-0.022-0.192-0.057-0.383-0.104-0.569
					c0.019-0.037,0.057-0.092,0.113-0.166l0.137,0.014c0.287,0.174,0.583,0.338,0.882,0.485c0.303,0.147,0.606,0.264,0.917,0.354
					c0.311,0.088,0.626,0.137,0.95,0.146c0.326,0.008,0.659-0.031,1.001-0.123c0.287-0.086,0.532-0.244,0.737-0.475
					c0.239-0.268,0.375-0.557,0.401-0.868c0.029-0.311-0.049-0.616-0.235-0.921c-0.213-0.36-0.489-0.692-0.833-0.987
					c-0.342-0.297-0.698-0.581-1.071-0.854c-0.369-0.274-0.723-0.553-1.06-0.833c-0.34-0.285-0.614-0.592-0.827-0.925
					c-0.129-0.211-0.217-0.438-0.264-0.68c-0.047-0.24-0.074-0.481-0.084-0.723c-0.008-0.352,0.057-0.698,0.194-1.042
					c0.223-0.544,0.559-0.958,1.007-1.241s0.964-0.43,1.548-0.438c0.444-0.01,0.89,0.008,1.334,0.055
					c0.442,0.047,0.884,0.119,1.318,0.221l0.098,0.112C133.198,59.153,133.196,59.3,133.192,59.445z"/>
				<path fill="#FFFFFF" d="M144.779,60.045l-0.099-0.028c-0.184-0.221-0.407-0.375-0.665-0.458c-0.168-0.056-0.424-0.09-0.77-0.104
					c-0.348-0.014-0.72-0.017-1.111-0.008c-0.395,0.01-0.778,0.024-1.146,0.043c-0.373,0.019-0.667,0.029-0.891,0.029
					c-0.008,1.49-0.016,2.975-0.026,4.457c-0.008,1.482-0.004,2.968,0.014,4.458c0.008,0.26,0.096,0.481,0.264,0.667
					c0.168,0.184,0.385,0.272,0.653,0.262l0.125,0.069l-0.069,0.137l-0.056,0.043c-0.538,0-1.075,0-1.611,0
					c-0.537,0-1.075,0.006-1.613,0.015l-0.123-0.07l0.014-0.137l0.108-0.043c0.131,0.01,0.252-0.012,0.362-0.063
					c0.113-0.051,0.211-0.119,0.299-0.207c0.088-0.088,0.158-0.19,0.209-0.307c0.051-0.115,0.076-0.237,0.076-0.367
					c0.045-1.49,0.063-2.98,0.049-4.465c-0.015-1.488-0.031-2.974-0.049-4.465c-0.481,0-0.946,0.013-1.394,0.033
					c-0.451,0.024-0.915,0.014-1.396-0.033c-0.047-0.01-0.084-0.012-0.113-0.008c-0.027,0.006-0.063,0.026-0.111,0.063
					c-0.073,0.047-0.125,0.106-0.153,0.18l0.015-0.013c-0.045,0.092-0.084,0.19-0.109,0.297c-0.031,0.106-0.063,0.207-0.098,0.299
					l-0.139,0.084c-0.037-0.018-0.074-0.035-0.104-0.049c-0.033-0.015-0.057-0.039-0.076-0.078c0.026-0.248,0.047-0.501,0.062-0.755
					c0.014-0.253,0.028-0.505,0.049-0.755c0.019-0.021,0.041-0.047,0.07-0.078c0.026-0.033,0.055-0.041,0.082-0.021
					c0.714,0.047,1.39,0.067,2.028,0.067c0.639,0,1.318,0,2.041,0c0.103,0,0.283-0.002,0.541-0.006
					c0.26-0.004,0.557-0.01,0.889-0.021c0.335-0.008,0.684-0.017,1.05-0.021c0.366-0.004,0.706-0.008,1.021-0.012
					c0.313-0.006,0.577-0.008,0.792-0.008c0.211,0,0.336,0.004,0.373,0.014c0.147,0.195,0.297,0.385,0.444,0.576
					c0.149,0.19,0.301,0.376,0.458,0.565l-0.014,0.135L144.779,60.045z"/>
				<path fill="#FFFFFF" d="M155.77,65.597c-0.153,0.538-0.373,1.04-0.659,1.509c-0.289,0.469-0.643,0.88-1.063,1.242
					c-0.421,0.36-0.9,0.643-1.439,0.848c-0.397,0.156-0.79,0.262-1.179,0.313c-0.389,0.051-0.79,0.074-1.208,0.074
					c-0.694,0-1.357-0.129-1.986-0.387c-0.628-0.26-1.186-0.641-1.667-1.138c-0.518-0.539-0.893-1.13-1.126-1.777
					c-0.229-0.649-0.346-1.345-0.346-2.084c0-0.583,0.073-1.142,0.221-1.681c0.149-0.539,0.369-1.034,0.661-1.495
					c0.291-0.457,0.649-0.866,1.077-1.226c0.424-0.364,0.909-0.653,1.458-0.876c0.405-0.168,0.802-0.276,1.193-0.326
					c0.389-0.053,0.8-0.076,1.234-0.076c0.659,0,1.313,0.127,1.959,0.387c0.649,0.258,1.199,0.637,1.652,1.126h-0.014
					c0.528,0.555,0.905,1.159,1.126,1.812c0.223,0.651,0.333,1.353,0.333,2.102C155.999,64.512,155.921,65.061,155.77,65.597z
					 M154.615,62.522c-0.207-0.569-0.547-1.097-1.02-1.588c-0.463-0.473-0.979-0.827-1.548-1.063c-0.569-0.235-1.183-0.35-1.84-0.34
					c-0.647,0-1.218,0.098-1.707,0.297c-0.492,0.201-0.903,0.477-1.237,0.833c-0.333,0.358-0.585,0.789-0.757,1.3
					c-0.17,0.51-0.258,1.079-0.258,1.707c-0.008,0.639,0.098,1.253,0.321,1.847c0.221,0.592,0.559,1.116,1.013,1.57h-0.014
					c0.333,0.344,0.725,0.624,1.175,0.847c0.449,0.221,0.913,0.373,1.395,0.459c0.481,0.082,0.964,0.102,1.443,0.055
					c0.483-0.047,0.932-0.168,1.347-0.36c0.417-0.197,0.784-0.465,1.097-0.809c0.315-0.342,0.549-0.762,0.696-1.263
					c0.074-0.268,0.127-0.539,0.16-0.811c0.033-0.274,0.049-0.545,0.049-0.813C154.93,63.714,154.824,63.093,154.615,62.522z"/>
				<path fill="#FFFFFF" d="M168.587,69.599c-0.19-0.021-0.373-0.031-0.549-0.031c-0.362-0.016-0.725-0.028-1.091-0.033
					c-0.365-0.006-0.727-0.01-1.089-0.021l-0.041-0.029l-0.084-0.151l0.111-0.069c0.168,0,0.328-0.047,0.479-0.139
					c0.153-0.092,0.266-0.217,0.342-0.375c0.053-0.123,0.074-0.256,0.053-0.403c-0.045-0.497-0.108-1.046-0.186-1.638
					c-0.08-0.593-0.142-1.14-0.188-1.64c-0.055-0.5-0.108-0.999-0.166-1.499c-0.055-0.501-0.108-1.001-0.153-1.502
					c-0.537,1.185-1.061,2.412-1.568,3.674c-0.51,1.263-1.027,2.49-1.554,3.675c-0.049,0.045-0.103,0.067-0.168,0.067
					c-0.057,0-0.102-0.022-0.139-0.067c-0.121-0.176-0.227-0.373-0.319-0.594c-0.092-0.215-0.19-0.416-0.292-0.602
					c-0.111-0.203-0.219-0.424-0.328-0.661c-0.104-0.233-0.207-0.475-0.311-0.713c-0.103-0.243-0.203-0.479-0.305-0.716
					c-0.103-0.237-0.203-0.46-0.305-0.673c-0.315-0.628-0.624-1.251-0.931-1.867c-0.305-0.616-0.619-1.23-0.944-1.84
					c-0.047,0.528-0.094,1.052-0.146,1.574c-0.051,0.524-0.1,1.05-0.146,1.579c-0.026,0.268-0.057,0.546-0.092,0.839
					c-0.031,0.293-0.063,0.586-0.096,0.88c-0.031,0.299-0.068,0.592-0.104,0.884c-0.037,0.291-0.074,0.567-0.11,0.825
					c0,0.021-0.002,0.033-0.006,0.041c-0.006,0.01-0.008,0.024-0.008,0.043c0,0.11,0.015,0.211,0.043,0.305
					c0.074,0.176,0.188,0.315,0.348,0.416c0.156,0.104,0.328,0.145,0.514,0.127l0.068,0.028l0.055,0.137l-0.139,0.084
					c-0.453,0.017-0.907,0.033-1.359,0.041c-0.455,0.01-0.909,0.022-1.361,0.043l-0.055-0.043l-0.058-0.137l0.139-0.072
					c0.24-0.018,0.449-0.104,0.626-0.262c0.092-0.086,0.162-0.176,0.207-0.278c0.047-0.103,0.078-0.213,0.096-0.334
					c0.067-0.397,0.129-0.817,0.188-1.257c0.062-0.44,0.115-0.88,0.16-1.327c0.047-0.442,0.092-0.882,0.139-1.318
					c0.047-0.436,0.088-0.857,0.125-1.265c0.058-0.555,0.104-1.107,0.147-1.66c0.041-0.549,0.08-1.102,0.117-1.658
					c0.019-0.258,0.025-0.526,0.021-0.805c-0.004-0.278,0.017-0.542,0.063-0.792c0.019-0.072,0.063-0.106,0.139-0.096
					c0.074,0.01,0.133,0.033,0.178,0.069c0.788,1.415,1.54,2.891,2.252,4.422c0.712,1.533,1.435,3.021,2.166,4.465
					c0.315-0.723,0.629-1.461,0.944-2.215c0.315-0.755,0.63-1.509,0.952-2.264c0.319-0.753,0.645-1.502,0.979-2.25
					c0.333-0.745,0.675-1.468,1.028-2.172c0.037-0.019,0.071-0.031,0.104-0.033c0.033-0.006,0.072-0.012,0.119-0.022l0.097,0.096
					c0.037,0.778,0.08,1.597,0.131,2.458c0.051,0.86,0.115,1.728,0.188,2.596c0.076,0.872,0.162,1.734,0.264,2.592
					c0.101,0.856,0.223,1.662,0.36,2.422c0.047,0.27,0.154,0.473,0.313,0.61c0.162,0.139,0.376,0.233,0.645,0.278
					c0.094,0.021,0.14,0.066,0.14,0.139c0,0.066-0.037,0.103-0.111,0.113C168.956,69.618,168.775,69.618,168.587,69.599z"/>
				<path fill="#FFFFFF" d="M174.175,69.583c-1.009-0.137-2.018-0.137-3.027,0l-0.039-0.015l-0.084-0.137l0.123-0.096
					c0.25-0.037,0.454-0.153,0.612-0.348c0.176-0.203,0.264-0.426,0.264-0.667c0.019-0.694,0.024-1.384,0.022-2.07
					c-0.006-0.684-0.008-1.374-0.008-2.067c0-0.731,0.002-1.452,0.008-2.16c0.002-0.71-0.004-1.433-0.022-2.172
					c-0.008-0.241-0.096-0.462-0.258-0.667c-0.162-0.205-0.369-0.319-0.618-0.348l-0.123-0.195l0.123-0.053
					c0.501,0.062,1.005,0.096,1.515,0.096s1.014-0.039,1.513-0.112l0.043,0.016l0.082,0.137l-0.125,0.099
					c-0.241,0.047-0.444,0.166-0.61,0.36c-0.176,0.195-0.264,0.416-0.264,0.667v8.469c0,0.251,0.086,0.473,0.258,0.667
					c0.17,0.194,0.375,0.311,0.616,0.348l0.125,0.18L174.175,69.583z"/>
				<path fill="#FFFFFF" d="M187.062,58.768c-1.482,1.648-2.921,3.302-4.319,4.971c-1.396,1.667-2.831,3.333-4.303,4.997
					c1.138-0.019,2.272-0.006,3.402,0.031c1.128,0.037,2.262,0.053,3.4,0.053c0.307,0,0.588-0.031,0.848-0.096
					c0.103-0.029,0.203-0.074,0.299-0.137c0.098-0.065,0.187-0.127,0.264-0.182c0.078-0.056,0.149-0.099,0.215-0.125
					c0.063-0.027,0.115-0.022,0.154,0.012c0.018,0.021,0.031,0.049,0.041,0.084c0.011,0.039,0.004,0.072-0.014,0.098l-1.056,1.11
					c-0.037,0.01-0.17,0.016-0.401,0.016s-0.514,0-0.848,0c-0.323,0-0.677-0.004-1.063-0.008c-0.385-0.004-0.751-0.01-1.103-0.014
					s-0.666-0.01-0.938-0.012c-0.272-0.004-0.464-0.008-0.575-0.008c-0.814,0-1.619-0.004-2.409-0.014
					c-0.792-0.01-1.597,0.006-2.41,0.041l-0.153-0.056l0.043-0.139c1.451-1.646,2.882-3.306,4.291-4.979
					c1.407-1.668,2.832-3.333,4.276-4.991c-0.565,0.018-1.079,0.026-1.541,0.026c-0.463,0-0.917,0-1.361,0
					c-0.444,0-0.897-0.002-1.361-0.006c-0.463-0.004-0.977-0.011-1.542-0.021c-0.147,0-0.291,0.006-0.43,0.012
					c-0.137,0.01-0.276,0.039-0.417,0.086c-0.092,0.026-0.184,0.069-0.276,0.131s-0.18,0.115-0.264,0.168
					c-0.084,0.049-0.158,0.09-0.221,0.117c-0.065,0.026-0.117,0.026-0.153,0c-0.076-0.053-0.088-0.115-0.041-0.18
					c0.129-0.176,0.299-0.362,0.514-0.561c0.211-0.201,0.397-0.378,0.555-0.536l0.096-0.041c0.805,0.026,1.56,0.045,2.264,0.055
					c0.705,0.01,1.398,0.012,2.082,0.008c0.686-0.006,1.382-0.019,2.084-0.037c0.704-0.018,1.458-0.043,2.264-0.069l0.151,0.057
					L187.062,58.768z"/>
				<path fill="#FFFFFF" d="M196.546,68.229c-0.036,0.164-0.075,0.33-0.118,0.501c-0.041,0.17-0.082,0.33-0.117,0.477
					c-0.037,0.149-0.062,0.242-0.069,0.278c-0.019,0.029-0.047,0.041-0.086,0.041c-0.035,0-0.062,0.01-0.082,0.029
					c-1.186-0.045-2.36-0.07-3.524-0.07c-1.169,0-2.345,0.033-3.53,0.097l-0.056-0.027l-0.055-0.137l0.125-0.084
					c0.25-0.019,0.465-0.127,0.645-0.321s0.276-0.414,0.287-0.666c0.053-1.433,0.08-2.868,0.076-4.299
					c-0.006-1.429-0.031-2.862-0.076-4.297c-0.01-0.26-0.104-0.487-0.279-0.682c-0.176-0.192-0.393-0.299-0.653-0.319
					c-0.037-0.027-0.078-0.045-0.125-0.062c-0.047-0.012-0.059-0.045-0.041-0.092c0-0.035,0.049-0.067,0.152-0.094
					c0.538,0.037,1.068,0.065,1.599,0.09c0.526,0.022,1.058,0.035,1.597,0.035c0.533,0,1.068-0.012,1.595-0.035
					c0.527-0.024,1.06-0.037,1.597-0.037c0.039,0,0.067,0.015,0.092,0.041c0.022,0.031,0.043,0.051,0.062,0.072
					c0,0.082-0.002,0.192-0.006,0.326c-0.005,0.135-0.007,0.27-0.007,0.409s-0.004,0.276-0.008,0.412
					c-0.006,0.133-0.006,0.244-0.006,0.326c-0.029,0.073-0.078,0.112-0.154,0.116c-0.075,0.006-0.129-0.028-0.165-0.102
					c-0.029-0.047-0.05-0.113-0.063-0.201c-0.015-0.09-0.029-0.178-0.048-0.266c-0.021-0.086-0.047-0.166-0.083-0.235
					c-0.039-0.07-0.093-0.103-0.168-0.103c-0.297-0.01-0.59-0.008-0.883,0.004c-0.291,0.016-0.584,0.028-0.881,0.037
					c-0.296,0-0.591,0-0.888,0c-0.288,0-0.58-0.004-0.876-0.014c0.01,0.694,0.021,1.386,0.029,2.076s0.015,1.382,0.015,2.076h1.928
					c0.197,0,0.371-0.065,0.522-0.203c0.151-0.133,0.256-0.292,0.312-0.477l0.084-0.069l0.139-0.015l0.097,0.111v2.098
					c0,0.082-0.043,0.117-0.132,0.103c-0.088-0.015-0.151-0.039-0.188-0.076c-0.045-0.195-0.144-0.358-0.291-0.492
					c-0.147-0.137-0.33-0.203-0.543-0.203h-1.928c0,0.741-0.006,1.476-0.015,2.209c-0.008,0.731-0.019,1.466-0.029,2.207
					c0.612-0.019,1.218-0.027,1.821-0.021c0.602,0.004,1.207,0.014,1.817,0.033c0.288,0.01,0.564-0.062,0.835-0.221
					c0.258-0.166,0.43-0.401,0.514-0.708l0.097-0.055l0.139,0.027l0.07,0.127C196.606,67.959,196.583,68.07,196.546,68.229z"/>
				<path fill="#FFFFFF" d="M208.6,65.767c-0.157,0.544-0.391,1.044-0.7,1.496c-0.311,0.457-0.696,0.848-1.152,1.175
					c-0.459,0.33-0.984,0.575-1.576,0.743c-0.373,0.102-0.749,0.176-1.132,0.221c-0.385,0.047-0.772,0.078-1.161,0.09
					c-0.389,0.017-0.778,0.022-1.167,0.022s-0.771,0-1.152,0c-0.796,0.01-1.593,0.037-2.387,0.084l-0.056-0.043l-0.058-0.137
					l0.127-0.072c0.259-0.018,0.479-0.121,0.666-0.311c0.184-0.19,0.286-0.414,0.305-0.673c0.084-1.409,0.125-2.848,0.125-4.32
					c0-1.472-0.041-2.911-0.125-4.317c-0.019-0.251-0.121-0.475-0.305-0.669c-0.187-0.193-0.407-0.295-0.666-0.305
					c-0.038-0.027-0.065-0.058-0.084-0.09c-0.018-0.031-0.036-0.065-0.057-0.104l0.127-0.053c0.786,0.045,1.576,0.073,2.374,0.083
					c0.39,0.008,0.774,0.01,1.159,0.006c0.383-0.004,0.771,0,1.158,0.012c0.392,0.014,0.774,0.043,1.153,0.092
					c0.38,0.045,0.759,0.121,1.14,0.221c0.602,0.166,1.132,0.416,1.591,0.743c0.456,0.33,0.842,0.717,1.152,1.159
					c0.31,0.446,0.543,0.94,0.7,1.486c0.158,0.547,0.235,1.124,0.235,1.736C208.835,64.645,208.758,65.218,208.6,65.767z
					 M207.044,66.111c0.215-0.471,0.35-0.956,0.409-1.458c0.062-0.5,0.047-0.997-0.041-1.497c-0.088-0.501-0.247-0.972-0.479-1.411
					c-0.231-0.442-0.532-0.835-0.903-1.187c-0.37-0.352-0.811-0.63-1.32-0.833c-0.305-0.121-0.632-0.207-0.984-0.258
					s-0.713-0.084-1.081-0.096c-0.372-0.016-0.741-0.019-1.107-0.008c-0.364,0.01-0.708,0.01-1.031,0
					c0.016,0.707,0.036,1.404,0.053,2.103c0.021,0.7,0.028,1.4,0.028,2.106c0,0.71-0.008,1.417-0.028,2.119
					c-0.017,0.698-0.026,1.396-0.026,2.1c0,0.25,0.079,0.471,0.241,0.655c0.164,0.182,0.379,0.276,0.646,0.276
					c0.481,0,0.93,0,1.348,0s0.816-0.035,1.201-0.104c0.383-0.07,0.756-0.197,1.118-0.381c0.362-0.186,0.723-0.467,1.083-0.848
					C206.541,67.01,206.833,66.584,207.044,66.111z"/>
				<path fill="#FFFFFF" d="M220.425,59.445c-0.004,0.149-0.012,0.299-0.021,0.446c-0.021,0.037-0.041,0.065-0.065,0.084
					c-0.021,0.019-0.049,0.035-0.073,0.055l-0.14-0.043c-0.168-0.184-0.364-0.33-0.589-0.436c-0.229-0.108-0.472-0.178-0.726-0.215
					c-0.253-0.037-0.507-0.043-0.761-0.022c-0.254,0.024-0.496,0.074-0.717,0.147c-0.25,0.082-0.467,0.213-0.646,0.389
					c-0.181,0.176-0.324,0.379-0.438,0.61c-0.099,0.192-0.147,0.393-0.136,0.598c0.017,0.36,0.132,0.688,0.345,0.979
					c0.213,0.292,0.475,0.569,0.786,0.833c0.311,0.264,0.646,0.526,1.007,0.792c0.36,0.264,0.696,0.548,1.007,0.852
					c0.312,0.307,0.569,0.645,0.778,1.015s0.315,0.792,0.323,1.265c0.021,0.766-0.233,1.417-0.762,1.941
					c-0.27,0.272-0.564,0.465-0.888,0.585c-0.324,0.121-0.672,0.176-1.04,0.166c-0.541-0.008-1.073-0.041-1.605-0.098
					c-0.532-0.053-1.064-0.145-1.593-0.276l-0.098-0.084c-0.045-0.184-0.078-0.375-0.103-0.569
					c-0.024-0.192-0.058-0.383-0.103-0.569c0.017-0.037,0.054-0.092,0.11-0.166l0.14,0.014c0.286,0.174,0.581,0.338,0.88,0.485
					c0.303,0.147,0.606,0.264,0.917,0.354c0.312,0.088,0.627,0.137,0.95,0.146c0.327,0.008,0.659-0.031,1.003-0.123
					c0.287-0.086,0.532-0.244,0.733-0.475c0.241-0.268,0.376-0.557,0.405-0.868c0.024-0.311-0.054-0.616-0.237-0.921
					c-0.213-0.36-0.492-0.692-0.836-0.987c-0.34-0.297-0.695-0.581-1.068-0.854c-0.368-0.274-0.721-0.553-1.061-0.833
					c-0.34-0.285-0.614-0.592-0.827-0.925c-0.131-0.211-0.217-0.438-0.262-0.68c-0.049-0.24-0.074-0.481-0.086-0.723
					c-0.009-0.352,0.058-0.698,0.196-1.042c0.221-0.544,0.557-0.958,1.008-1.241c0.445-0.283,0.962-0.43,1.547-0.438
					c0.442-0.01,0.889,0.008,1.331,0.055c0.446,0.047,0.889,0.119,1.322,0.221l0.094,0.112
					C220.429,59.153,220.429,59.3,220.425,59.445z"/>
				<path fill="#FFFFFF" d="M232.942,58.614c0,0.035,0,0.08,0,0.123c-0.267,0.021-0.491,0.125-0.672,0.315
					c-0.18,0.188-0.282,0.414-0.299,0.673c-0.073,0.897-0.114,1.822-0.118,2.768c-0.005,0.95,0.004,1.873,0.021,2.772
					c0.021,0.575-0.074,1.13-0.278,1.666c-0.103,0.268-0.233,0.522-0.394,0.757c-0.164,0.236-0.348,0.461-0.549,0.674
					c-0.426,0.444-0.896,0.766-1.412,0.966c-0.512,0.196-1.073,0.297-1.688,0.297c-0.602,0-1.162-0.099-1.694-0.291
					c-0.524-0.196-0.999-0.516-1.413-0.96c-0.204-0.211-0.385-0.434-0.536-0.666c-0.151-0.231-0.278-0.481-0.381-0.751
					c-0.213-0.544-0.311-1.105-0.295-1.679c0.021-0.899,0.029-1.82,0.029-2.764c0-0.954-0.029-1.879-0.099-2.778
					c-0.017-0.25-0.119-0.475-0.303-0.674c-0.185-0.198-0.405-0.303-0.668-0.313c-0.036-0.027-0.077-0.045-0.131-0.062
					c-0.053-0.012-0.053-0.057-0.008-0.133c0.021-0.016,0.062-0.037,0.127-0.053c0.545,0.016,1.085,0.037,1.617,0.053
					c0.532,0.021,1.072,0.033,1.617,0.041l0.053,0.043l0.074,0.14l-0.127,0.069c-0.188,0-0.356,0.053-0.508,0.162
					c-0.151,0.104-0.254,0.24-0.311,0.408c-0.021,0.047-0.033,0.141-0.037,0.286c-0.004,0.142-0.004,0.315-0.004,0.52
					c0,0.195,0,0.406,0,0.637c0,0.225,0,0.442,0.004,0.655s0.008,0.401,0.016,0.569c0.005,0.166,0.009,0.287,0.009,0.362
					c0.008,0.453,0.013,0.926,0.021,1.415c0.004,0.489,0,0.958-0.008,1.402c-0.009,0.462,0.057,0.888,0.208,1.277
					c0.147,0.389,0.385,0.749,0.709,1.083c0.311,0.325,0.671,0.567,1.068,0.73c0.397,0.16,0.818,0.244,1.261,0.244
					c0.475,0,0.905-0.09,1.294-0.266c0.389-0.176,0.725-0.414,1.007-0.714c0.283-0.303,0.5-0.653,0.651-1.054
					c0.155-0.405,0.229-0.837,0.229-1.3c-0.009-0.899,0-1.818,0.021-2.756c0.024-0.941,0.045-1.858,0.065-2.757
					c0.008-0.24-0.069-0.458-0.237-0.651c-0.168-0.197-0.381-0.283-0.639-0.266l-0.07-0.027l-0.041-0.139l0.123-0.082
					c0.455-0.021,0.905-0.037,1.355-0.049c0.45-0.015,0.9-0.029,1.355-0.049C232.946,58.537,232.942,58.577,232.942,58.614z"/>
				<path fill="#FFFFFF" d="M237.9,69.583c-1.007-0.137-2.019-0.137-3.025,0l-0.045-0.015l-0.082-0.137l0.127-0.096
					c0.249-0.037,0.45-0.153,0.609-0.348c0.177-0.203,0.263-0.426,0.263-0.667c0.021-0.694,0.028-1.384,0.024-2.07
					c-0.008-0.684-0.008-1.374-0.008-2.067c0-0.731,0-1.452,0.008-2.16c0.004-0.71-0.004-1.433-0.024-2.172
					c-0.009-0.241-0.095-0.462-0.258-0.667c-0.16-0.205-0.365-0.319-0.614-0.348l-0.127-0.195l0.127-0.053
					c0.499,0.062,1.003,0.096,1.511,0.096c0.512,0,1.016-0.039,1.515-0.112l0.041,0.016l0.086,0.137l-0.127,0.099
					c-0.241,0.047-0.442,0.166-0.61,0.36c-0.176,0.195-0.266,0.416-0.266,0.667v8.469c0,0.251,0.086,0.473,0.258,0.667
					c0.172,0.194,0.377,0.311,0.618,0.348l0.127,0.18L237.9,69.583z"/>
				<path fill="#FFFFFF" d="M248.885,60.045l-0.099-0.028c-0.185-0.221-0.405-0.375-0.667-0.458
					c-0.164-0.056-0.422-0.09-0.771-0.104c-0.344-0.014-0.716-0.017-1.109-0.008c-0.393,0.01-0.773,0.024-1.146,0.043
					c-0.372,0.019-0.667,0.029-0.888,0.029c-0.009,1.49-0.017,2.975-0.029,4.457c-0.008,1.482-0.004,2.968,0.017,4.458
					c0.008,0.26,0.094,0.481,0.262,0.667c0.168,0.184,0.385,0.272,0.651,0.262l0.127,0.069l-0.069,0.137l-0.058,0.043
					c-0.536,0-1.072,0-1.609,0c-0.536,0-1.072,0.006-1.608,0.015l-0.127-0.07l0.016-0.137l0.111-0.043
					c0.127,0.01,0.249-0.012,0.36-0.063c0.11-0.051,0.208-0.119,0.299-0.207c0.086-0.088,0.155-0.19,0.204-0.307
					c0.054-0.115,0.078-0.237,0.078-0.367c0.049-1.49,0.065-2.98,0.049-4.465c-0.012-1.488-0.028-2.974-0.049-4.465
					c-0.483,0-0.946,0.013-1.393,0.033c-0.45,0.024-0.917,0.014-1.396-0.033c-0.05-0.01-0.086-0.012-0.115-0.008
					c-0.024,0.006-0.061,0.026-0.11,0.063c-0.073,0.047-0.123,0.106-0.151,0.18l0.013-0.013c-0.046,0.092-0.082,0.19-0.106,0.297
					c-0.033,0.106-0.065,0.207-0.099,0.299l-0.14,0.084c-0.041-0.018-0.073-0.035-0.106-0.049c-0.032-0.015-0.057-0.039-0.073-0.078
					c0.024-0.248,0.045-0.501,0.062-0.755c0.012-0.253,0.028-0.505,0.045-0.755c0.021-0.021,0.045-0.047,0.073-0.078
					c0.025-0.033,0.054-0.041,0.082-0.021c0.713,0.047,1.389,0.067,2.027,0.067s1.318,0,2.043,0c0.098,0,0.282-0.002,0.54-0.006
					c0.258-0.004,0.557-0.01,0.889-0.021c0.331-0.008,0.684-0.017,1.048-0.021s0.709-0.008,1.023-0.012
					c0.312-0.006,0.577-0.008,0.791-0.008c0.213,0,0.335,0.004,0.372,0.014c0.147,0.195,0.299,0.385,0.446,0.576
					c0.147,0.19,0.299,0.376,0.459,0.565l-0.017,0.135L248.885,60.045z"/>
			</g>
		</g>
	</g>
</g>
</svg>
